<svg xmlns="http://www.w3.org/2000/svg" version="1.1" viewBox="-5.0 -10.0 110.0 135.0">
 <path d="m61.211 43.703h-22.426c-1.1953 0-2.2617-0.84766-2.4805-2.0117l-1.8516-9.0469c-0.15625-0.72266 0.03125-1.4766 0.50391-2.0742 0.47266-0.59766 1.1953-0.94141 1.9805-0.94141h11.273c0.78516 0 1.5391 0.28125 2.1367 0.78516l12.844 10.773-0.3125 1.3203c-0.25 0.72266-0.94141 1.1953-1.7266 1.1953zm-0.84766-0.81641zm-21.105-2.3242h18.309l-9.2344-7.7266h-10.68s1.5703 7.7266 1.5703 7.7266z"/>
 <path d="m30.621 43.703h-20.82v-1.5703c0-6.8789 5.7773-12.469 12.875-12.469h6.1875c1.3516 0 2.5117 0.94141 2.7969 2.2305l1.7266 8.4805c0.15625 0.81641-0.03125 1.6641-0.56641 2.293-0.53516 0.66016-1.3516 1.0352-2.1992 1.0352zm-17.523-3.1406h17.148l-1.5703-7.7578h-5.9688c-4.8047 0-8.8242 3.3594-9.6094 7.7578z"/>
 <path d="m22.332 74.984c-5.6211 0-10.176-4.5547-10.176-10.176s4.5547-10.176 10.176-10.176c5.6211 0 10.176 4.5547 10.176 10.176s-4.5547 10.176-10.176 10.176zm0-17.211c-3.8945 0-7.0352 3.1719-7.0352 7.0352 0 3.8633 3.1719 7.0352 7.0352 7.0352s7.0352-3.1719 7.0352-7.0352c0-3.8633-3.1719-7.0352-7.0352-7.0352z"/>
 <path d="m26.727 64.809c0 5.8633-8.793 5.8633-8.793 0 0-5.8633 8.793-5.8633 8.793 0"/>
 <path d="m77.199 64.809c0 5.8633-8.793 5.8633-8.793 0 0-5.8633 8.793-5.8633 8.793 0"/>
 <path d="m72.801 74.984c-5.6211 0-10.176-4.5547-10.176-10.176s4.5547-10.176 10.176-10.176c5.6211 0 10.176 4.5547 10.176 10.176s-4.5547 10.176-10.176 10.176zm0-17.211c-3.8945 0-7.0352 3.1719-7.0352 7.0352 0 3.8633 3.1719 7.0352 7.0352 7.0352s7.0352-3.1719 7.0352-7.0352c0-3.8633-3.1719-7.0352-7.0352-7.0352z"/>
 <path d="m96.418 66.473h-11.871v-1.6016c0-6.4688-5.2148-11.684-11.621-11.684s-11.59 5.1836-11.621 11.59v1.5703s-27.324-0.09375-27.324-0.09375v-1.5391c-0.0625-6.3438-5.2773-11.527-11.621-11.527s-11.496 5.1211-11.621 11.402v1.6641l-1.6953-0.125c-3.3906-0.25-6.4375-2.043-8.1641-4.7734-1.6328-2.6055-0.94141-6.1562 1.5703-8.1328l0.21875-0.1875v-9.4844c0.03125-10.207 8.8867-18.531 19.785-18.531h27.043c1.7578 0 3.4844 0.62891 4.8359 1.7266l15.23 12.625h6.8164c10.426 0 19.316 8.0391 20.164 17.902 1.7891 0.1875 3.2344 1.6328 3.3906 3.4531 0.125 1.5391 0.125 3.4531-1.0352 4.6797-0.44141 0.47266-1.2266 1.0352-2.4805 1.0352zm-8.793-3.1719h8.8242c0.1875 0 0.53516-0.34375 0.375-2.293 0-0.34375-0.3125-0.59766-0.69141-0.59766h-2.6367v-1.5703c0-8.8555-7.8203-16.332-17.086-16.332h-7.9453l-16.113-13.348c-0.78516-0.66016-1.7891-1.0352-2.8281-1.0352h-27.066c-9.1406 0.03125-16.617 6.9414-16.617 15.453v11.023l-1.4766 1.0977c-1.2578 0.97266-1.6328 2.7305-0.84766 3.9883 0.94141 1.4766 2.4492 2.5742 4.1758 3.0469 1.0352-7.1289 7.2227-12.688 14.605-12.688 7.3789 0 13.82 5.7461 14.668 13.066l21.262 0.0625c0.81641-7.3789 7.0977-13.16 14.668-13.16 7.5703 0 13.914 5.8086 14.699 13.254z"/>
 <path d="m38.883 51.145h17.965v3.1406h-17.965z"/>
<text x="0.0" y="117.5" font-size="5.0" font-weight="bold" font-family="Arbeit Regular, Helvetica, Arial-Unicode, Arial, Sans-serif" fill="#000000">Created by Brant Day</text><text x="0.0" y="122.5" font-size="5.0" font-weight="bold" font-family="Arbeit Regular, Helvetica, Arial-Unicode, Arial, Sans-serif" fill="#000000">from Noun Project</text></svg>