<svg width="400" height="400" viewBox="0 0 400 400" fill="none" xmlns="http://www.w3.org/2000/svg">
<rect width="400" height="400" fill="white"/>
<rect x="27" y="126" width="90" height="34" fill="#0F4686"/>
<g clip-path="url(#clip0_2002_3)">
<rect width="28" height="90" transform="translate(27 168)" fill="#137834"/>
<path d="M55 258H27H26.5L27 257.5L55 239V258Z" fill="white"/>
<path d="M55 258H27H26.5L27 257.5L55 239V258Z" fill="white"/>
</g>
<rect x="27" y="167" width="90" height="35" fill="#137834"/>
<rect x="62" y="209" width="54" height="49" fill="#A4AEB7"/>
<path d="M151.4 124.016V132.464H138.056V137.168H147.656V145.184H138.056V158H127.4V124.016H151.4ZM180.641 152.864H169.313L167.633 158H156.449L168.881 124.016H181.169L193.553 158H182.321L180.641 152.864ZM178.049 144.848L174.977 135.392L171.905 144.848H178.049ZM210.47 149.936H220.742V158H199.814V124.016H210.47V149.936ZM249.728 152.864H238.4L236.72 158H225.536L237.968 124.016H250.256L262.64 158H251.408L249.728 152.864ZM247.136 144.848L244.064 135.392L240.992 144.848H247.136ZM300.341 124.016V158H289.685V144.752H279.557V158H268.901V124.016H279.557V136.256H289.685V124.016H300.341Z" fill="#0F4686"/>
<path d="M150.152 189.576C152.2 190.056 153.784 191.048 154.904 192.552C156.056 194.024 156.632 195.736 156.632 197.688C156.632 200.664 155.64 202.968 153.656 204.6C151.704 206.2 148.888 207 145.208 207H127.4V173.016H144.728C148.184 173.016 150.904 173.768 152.888 175.272C154.872 176.776 155.864 178.968 155.864 181.848C155.864 183.832 155.336 185.512 154.28 186.888C153.256 188.232 151.88 189.128 150.152 189.576ZM138.056 186.264H142.184C143.144 186.264 143.848 186.072 144.296 185.688C144.776 185.304 145.016 184.712 145.016 183.912C145.016 183.08 144.776 182.472 144.296 182.088C143.848 181.672 143.144 181.464 142.184 181.464H138.056V186.264ZM142.904 198.456C143.864 198.456 144.568 198.28 145.016 197.928C145.496 197.544 145.736 196.936 145.736 196.104C145.736 194.472 144.792 193.656 142.904 193.656H138.056V198.456H142.904ZM174.709 181.512V185.688H185.269V193.704H174.709V198.504H186.709V207H164.053V173.016H186.709V181.512H174.709ZM211.652 207L205.268 194.808H205.22V207H194.564V173.016H210.404C213.156 173.016 215.508 173.512 217.46 174.504C219.412 175.464 220.868 176.792 221.828 178.488C222.82 180.152 223.316 182.04 223.316 184.152C223.316 186.424 222.676 188.44 221.396 190.2C220.148 191.96 218.34 193.224 215.972 193.992L223.364 207H211.652ZM205.22 187.704H209.444C210.468 187.704 211.236 187.48 211.748 187.032C212.26 186.552 212.516 185.816 212.516 184.824C212.516 183.928 212.244 183.224 211.7 182.712C211.188 182.2 210.436 181.944 209.444 181.944H205.22V187.704ZM251.105 207L241.217 192.264V207H230.561V173.016H241.217V187.32L250.961 173.016H263.009L251.297 189.288L263.777 207H251.105ZM292.427 201.864H281.099L279.419 207H268.235L280.667 173.016H292.955L305.339 207H294.107L292.427 201.864ZM289.835 193.848L286.763 184.392L283.691 193.848H289.835ZM343.04 173.016V207H332.384V193.752H322.256V207H311.6V173.016H322.256V185.256H332.384V173.016H343.04Z" fill="#0F4686"/>
<path d="M166.248 224.016V258H155.64V241.056L150.408 258H141.288L136.056 241.056V258H125.4V224.016H138.456L145.944 244.416L153.24 224.016H166.248ZM196.688 252.864H185.36L183.68 258H172.496L184.928 224.016H197.216L209.6 258H198.368L196.688 252.864ZM194.096 244.848L191.024 235.392L187.952 244.848H194.096ZM248.453 258H237.797L226.517 240.912V258H215.861V224.016H226.517L237.797 241.392V224.016H248.453V258ZM271.268 224.016C274.82 224.016 277.924 224.736 280.58 226.176C283.268 227.616 285.332 229.616 286.772 232.176C288.212 234.736 288.932 237.648 288.932 240.912C288.932 244.144 288.212 247.056 286.772 249.648C285.332 252.24 283.268 254.288 280.58 255.792C277.924 257.264 274.82 258 271.268 258H257.108V224.016H271.268ZM270.308 248.496C272.708 248.496 274.612 247.84 276.02 246.528C277.428 245.216 278.132 243.344 278.132 240.912C278.132 238.48 277.428 236.608 276.02 235.296C274.612 233.984 272.708 233.328 270.308 233.328H267.764V248.496H270.308ZM307.275 224.016V258H296.619V224.016H307.275ZM333.016 258L326.632 245.808H326.584V258H315.928V224.016H331.768C334.52 224.016 336.872 224.512 338.824 225.504C340.776 226.464 342.232 227.792 343.192 229.488C344.184 231.152 344.68 233.04 344.68 235.152C344.68 237.424 344.04 239.44 342.76 241.2C341.512 242.96 339.704 244.224 337.336 244.992L344.728 258H333.016ZM326.584 238.704H330.808C331.832 238.704 332.6 238.48 333.112 238.032C333.624 237.552 333.88 236.816 333.88 235.824C333.88 234.928 333.608 234.224 333.064 233.712C332.552 233.2 331.8 232.944 330.808 232.944H326.584V238.704ZM362.58 224.016V258H351.924V224.016H362.58Z" fill="#0F4686"/>
<path d="M98.4347 288V273.455H103.889C105.007 273.455 105.944 273.663 106.702 274.08C107.464 274.496 108.039 275.069 108.428 275.798C108.821 276.523 109.017 277.347 109.017 278.27C109.017 279.203 108.821 280.031 108.428 280.756C108.035 281.48 107.455 282.051 106.688 282.467C105.92 282.879 104.976 283.085 103.854 283.085H100.239V280.919H103.499C104.152 280.919 104.687 280.805 105.104 280.578C105.52 280.351 105.828 280.038 106.027 279.641C106.231 279.243 106.332 278.786 106.332 278.27C106.332 277.754 106.231 277.299 106.027 276.906C105.828 276.513 105.518 276.208 105.097 275.99C104.68 275.768 104.143 275.656 103.484 275.656H101.07V288H98.4347ZM112.792 288V277.091H115.363V288H112.792ZM114.085 275.543C113.678 275.543 113.327 275.408 113.034 275.138C112.74 274.863 112.593 274.534 112.593 274.151C112.593 273.762 112.74 273.433 113.034 273.163C113.327 272.889 113.678 272.751 114.085 272.751C114.497 272.751 114.847 272.889 115.136 273.163C115.429 273.433 115.576 273.762 115.576 274.151C115.576 274.534 115.429 274.863 115.136 275.138C114.847 275.408 114.497 275.543 114.085 275.543ZM122.178 273.455V288H119.607V273.455H122.178ZM126.422 288V277.091H128.993V288H126.422ZM127.714 275.543C127.307 275.543 126.957 275.408 126.663 275.138C126.37 274.863 126.223 274.534 126.223 274.151C126.223 273.762 126.37 273.433 126.663 273.163C126.957 272.889 127.307 272.751 127.714 272.751C128.126 272.751 128.477 272.889 128.766 273.163C129.059 273.433 129.206 273.762 129.206 274.151C129.206 274.534 129.059 274.863 128.766 275.138C128.477 275.408 128.126 275.543 127.714 275.543ZM135.808 281.608V288H133.237V273.455H135.751V278.945H135.879C136.134 278.329 136.53 277.844 137.065 277.489C137.605 277.129 138.291 276.949 139.124 276.949C139.882 276.949 140.543 277.107 141.106 277.425C141.669 277.742 142.105 278.206 142.413 278.817C142.725 279.428 142.882 280.173 142.882 281.054V288H140.311V281.452C140.311 280.718 140.121 280.147 139.742 279.74C139.368 279.328 138.843 279.122 138.166 279.122C137.711 279.122 137.304 279.222 136.944 279.42C136.589 279.615 136.31 279.896 136.106 280.266C135.907 280.635 135.808 281.082 135.808 281.608ZM150.241 288.22C149.55 288.22 148.928 288.097 148.374 287.851C147.824 287.6 147.389 287.231 147.067 286.743C146.75 286.255 146.591 285.654 146.591 284.939C146.591 284.323 146.705 283.814 146.932 283.412C147.159 283.009 147.469 282.688 147.862 282.446C148.255 282.205 148.698 282.022 149.19 281.899C149.688 281.771 150.201 281.679 150.732 281.622C151.371 281.556 151.889 281.497 152.287 281.445C152.685 281.388 152.973 281.303 153.153 281.189C153.338 281.071 153.43 280.888 153.43 280.642V280.599C153.43 280.064 153.272 279.65 152.955 279.357C152.637 279.063 152.18 278.916 151.584 278.916C150.954 278.916 150.455 279.054 150.085 279.328C149.721 279.603 149.474 279.927 149.347 280.301L146.946 279.96C147.135 279.297 147.448 278.743 147.884 278.298C148.319 277.848 148.852 277.512 149.482 277.29C150.111 277.062 150.807 276.949 151.57 276.949C152.095 276.949 152.618 277.01 153.139 277.134C153.66 277.257 154.136 277.46 154.567 277.744C154.998 278.024 155.343 278.405 155.604 278.888C155.869 279.371 156.001 279.974 156.001 280.699V288H153.53V286.501H153.445C153.288 286.804 153.068 287.089 152.784 287.354C152.505 287.614 152.152 287.825 151.726 287.986C151.304 288.142 150.81 288.22 150.241 288.22ZM150.909 286.331C151.425 286.331 151.873 286.229 152.251 286.026C152.63 285.817 152.921 285.543 153.125 285.202C153.333 284.861 153.438 284.489 153.438 284.087V282.801C153.357 282.867 153.22 282.929 153.026 282.986C152.836 283.043 152.623 283.092 152.386 283.135C152.15 283.178 151.915 283.215 151.683 283.249C151.451 283.282 151.25 283.31 151.08 283.334C150.696 283.386 150.353 283.471 150.05 283.589C149.747 283.708 149.508 283.874 149.332 284.087C149.157 284.295 149.07 284.565 149.07 284.896C149.07 285.37 149.242 285.727 149.588 285.969C149.934 286.21 150.374 286.331 150.909 286.331ZM162.758 281.608V288H160.187V277.091H162.644V278.945H162.772C163.023 278.334 163.423 277.848 163.972 277.489C164.526 277.129 165.21 276.949 166.025 276.949C166.778 276.949 167.433 277.11 167.992 277.432C168.555 277.754 168.991 278.22 169.299 278.831C169.611 279.442 169.765 280.183 169.761 281.054V288H167.189V281.452C167.189 280.723 167 280.152 166.621 279.74C166.247 279.328 165.729 279.122 165.066 279.122C164.616 279.122 164.216 279.222 163.866 279.42C163.52 279.615 163.248 279.896 163.049 280.266C162.855 280.635 162.758 281.082 162.758 281.608ZM180.01 275.663V273.455H191.615V275.663H187.119V288H184.505V275.663H180.01ZM198.586 288.213C197.492 288.213 196.547 287.986 195.752 287.531C194.961 287.072 194.353 286.423 193.927 285.585C193.5 284.742 193.287 283.75 193.287 282.609C193.287 281.487 193.5 280.502 193.927 279.655C194.358 278.803 194.959 278.14 195.731 277.666C196.502 277.188 197.409 276.949 198.451 276.949C199.123 276.949 199.758 277.058 200.354 277.276C200.956 277.489 201.486 277.82 201.945 278.27C202.409 278.72 202.774 279.293 203.039 279.989C203.304 280.68 203.437 281.504 203.437 282.46V283.249H194.495V281.516H200.972C200.967 281.023 200.861 280.585 200.652 280.202C200.444 279.813 200.153 279.508 199.779 279.286C199.41 279.063 198.979 278.952 198.486 278.952C197.961 278.952 197.499 279.08 197.101 279.335C196.704 279.586 196.393 279.918 196.171 280.33C195.953 280.737 195.842 281.184 195.837 281.672V283.185C195.837 283.819 195.953 284.364 196.185 284.818C196.417 285.268 196.742 285.614 197.158 285.855C197.575 286.092 198.063 286.21 198.621 286.21C198.995 286.21 199.334 286.158 199.637 286.054C199.94 285.945 200.203 285.786 200.425 285.578C200.648 285.37 200.816 285.112 200.929 284.804L203.33 285.074C203.179 285.708 202.89 286.262 202.464 286.736C202.042 287.205 201.502 287.569 200.844 287.83C200.186 288.085 199.433 288.213 198.586 288.213ZM207.212 288V277.091H209.705V278.909H209.818C210.017 278.279 210.358 277.794 210.841 277.453C211.329 277.107 211.885 276.935 212.51 276.935C212.652 276.935 212.811 276.942 212.986 276.956C213.166 276.965 213.315 276.982 213.433 277.006V279.371C213.324 279.333 213.152 279.3 212.915 279.271C212.683 279.238 212.458 279.222 212.24 279.222C211.771 279.222 211.35 279.323 210.976 279.527C210.607 279.726 210.315 280.003 210.102 280.358C209.889 280.713 209.783 281.123 209.783 281.587V288H207.212ZM216.855 288V273.455H219.426V278.895H219.533C219.665 278.63 219.852 278.348 220.094 278.05C220.335 277.747 220.662 277.489 221.074 277.276C221.486 277.058 222.011 276.949 222.65 276.949C223.493 276.949 224.253 277.164 224.93 277.595C225.612 278.021 226.152 278.653 226.55 279.491C226.952 280.325 227.153 281.348 227.153 282.56C227.153 283.758 226.957 284.776 226.564 285.614C226.171 286.452 225.636 287.091 224.959 287.531C224.282 287.972 223.515 288.192 222.658 288.192C222.033 288.192 221.514 288.088 221.102 287.879C220.69 287.671 220.359 287.42 220.108 287.126C219.862 286.828 219.67 286.546 219.533 286.281H219.383V288H216.855ZM219.376 282.545C219.376 283.251 219.476 283.869 219.675 284.399C219.878 284.929 220.169 285.344 220.548 285.642C220.932 285.936 221.396 286.082 221.94 286.082C222.508 286.082 222.984 285.931 223.368 285.628C223.751 285.32 224.04 284.901 224.234 284.371C224.433 283.836 224.533 283.227 224.533 282.545C224.533 281.868 224.435 281.267 224.241 280.741C224.047 280.216 223.758 279.804 223.375 279.506C222.991 279.207 222.513 279.058 221.94 279.058C221.391 279.058 220.925 279.203 220.541 279.491C220.158 279.78 219.866 280.185 219.667 280.706C219.473 281.227 219.376 281.84 219.376 282.545ZM234.078 288.22C233.387 288.22 232.764 288.097 232.21 287.851C231.661 287.6 231.225 287.231 230.903 286.743C230.586 286.255 230.428 285.654 230.428 284.939C230.428 284.323 230.541 283.814 230.769 283.412C230.996 283.009 231.306 282.688 231.699 282.446C232.092 282.205 232.535 282.022 233.027 281.899C233.524 281.771 234.038 281.679 234.568 281.622C235.207 281.556 235.726 281.497 236.124 281.445C236.521 281.388 236.81 281.303 236.99 281.189C237.175 281.071 237.267 280.888 237.267 280.642V280.599C237.267 280.064 237.108 279.65 236.791 279.357C236.474 279.063 236.017 278.916 235.421 278.916C234.791 278.916 234.291 279.054 233.922 279.328C233.557 279.603 233.311 279.927 233.183 280.301L230.783 279.96C230.972 279.297 231.285 278.743 231.72 278.298C232.156 277.848 232.689 277.512 233.318 277.29C233.948 277.062 234.644 276.949 235.406 276.949C235.932 276.949 236.455 277.01 236.976 277.134C237.497 277.257 237.973 277.46 238.403 277.744C238.834 278.024 239.18 278.405 239.44 278.888C239.706 279.371 239.838 279.974 239.838 280.699V288H237.367V286.501H237.281C237.125 286.804 236.905 287.089 236.621 287.354C236.341 287.614 235.989 287.825 235.563 287.986C235.141 288.142 234.646 288.22 234.078 288.22ZM234.746 286.331C235.262 286.331 235.709 286.229 236.088 286.026C236.467 285.817 236.758 285.543 236.962 285.202C237.17 284.861 237.274 284.489 237.274 284.087V282.801C237.194 282.867 237.056 282.929 236.862 282.986C236.673 283.043 236.46 283.092 236.223 283.135C235.986 283.178 235.752 283.215 235.52 283.249C235.288 283.282 235.087 283.31 234.916 283.334C234.533 283.386 234.189 283.471 233.886 283.589C233.583 283.708 233.344 283.874 233.169 284.087C232.994 284.295 232.906 284.565 232.906 284.896C232.906 285.37 233.079 285.727 233.425 285.969C233.77 286.21 234.211 286.331 234.746 286.331ZM244.023 288V277.091H246.594V288H244.023ZM245.316 275.543C244.909 275.543 244.558 275.408 244.265 275.138C243.971 274.863 243.825 274.534 243.825 274.151C243.825 273.762 243.971 273.433 244.265 273.163C244.558 272.889 244.909 272.751 245.316 272.751C245.728 272.751 246.078 272.889 246.367 273.163C246.661 273.433 246.807 273.762 246.807 274.151C246.807 274.534 246.661 274.863 246.367 275.138C246.078 275.408 245.728 275.543 245.316 275.543ZM253.182 284.577L253.175 281.473H253.587L257.507 277.091H260.512L255.689 282.46H255.156L253.182 284.577ZM250.838 288V273.455H253.409V288H250.838ZM257.685 288L254.134 283.036L255.867 281.224L260.76 288H257.685Z" fill="#0F4686"/>
<defs>
<clipPath id="clip0_2002_3">
<rect width="28" height="90" fill="white" transform="translate(27 168)"/>
</clipPath>
</defs>
</svg>
